<mxfile host="app.diagrams.net" agent="Mozilla/5.0 (Macintosh; Intel Mac OS X 10_15_7) AppleWebKit/537.36 (KHTML, like Gecko) Chrome/126.0.0.0 Safari/537.36" version="24.7.6">
  <diagram name="第 1 页" id="lGk9jrkxKhczxA843UJX">
    <mxGraphModel dx="2261" dy="820" grid="1" gridSize="10" guides="1" tooltips="1" connect="1" arrows="1" fold="1" page="1" pageScale="1" pageWidth="827" pageHeight="1169" math="0" shadow="0">
      <root>
        <mxCell id="0" />
        <mxCell id="1" parent="0" />
        <mxCell id="fdgb_wpusmmBCs2MOBiY-53" value="" style="rounded=0;whiteSpace=wrap;html=1;" vertex="1" parent="1">
          <mxGeometry x="260" y="490" width="740" height="100" as="geometry" />
        </mxCell>
        <mxCell id="fdgb_wpusmmBCs2MOBiY-6" style="edgeStyle=orthogonalEdgeStyle;rounded=0;orthogonalLoop=1;jettySize=auto;html=1;" edge="1" parent="1" source="fdgb_wpusmmBCs2MOBiY-1" target="fdgb_wpusmmBCs2MOBiY-5">
          <mxGeometry relative="1" as="geometry" />
        </mxCell>
        <mxCell id="fdgb_wpusmmBCs2MOBiY-1" value="互联" style="rounded=0;whiteSpace=wrap;html=1;" vertex="1" parent="1">
          <mxGeometry x="90" y="208" width="120" height="60" as="geometry" />
        </mxCell>
        <mxCell id="fdgb_wpusmmBCs2MOBiY-21" style="edgeStyle=orthogonalEdgeStyle;rounded=0;orthogonalLoop=1;jettySize=auto;html=1;entryX=0.5;entryY=1;entryDx=0;entryDy=0;" edge="1" parent="1" source="fdgb_wpusmmBCs2MOBiY-2" target="fdgb_wpusmmBCs2MOBiY-4">
          <mxGeometry relative="1" as="geometry" />
        </mxCell>
        <mxCell id="fdgb_wpusmmBCs2MOBiY-2" value="直连桩" style="rounded=0;whiteSpace=wrap;html=1;" vertex="1" parent="1">
          <mxGeometry x="640" y="770" width="120" height="60" as="geometry" />
        </mxCell>
        <mxCell id="fdgb_wpusmmBCs2MOBiY-3" value="标准直连 80%" style="rounded=0;whiteSpace=wrap;html=1;" vertex="1" parent="1">
          <mxGeometry x="550" y="660" width="120" height="60" as="geometry" />
        </mxCell>
        <mxCell id="fdgb_wpusmmBCs2MOBiY-4" value="快速直连 15%" style="rounded=0;whiteSpace=wrap;html=1;" vertex="1" parent="1">
          <mxGeometry x="740" y="660" width="120" height="60" as="geometry" />
        </mxCell>
        <mxCell id="fdgb_wpusmmBCs2MOBiY-5" value="operator-platform" style="rounded=1;whiteSpace=wrap;html=1;" vertex="1" parent="1">
          <mxGeometry x="90" y="338" width="120" height="60" as="geometry" />
        </mxCell>
        <mxCell id="fdgb_wpusmmBCs2MOBiY-35" style="rounded=0;orthogonalLoop=1;jettySize=auto;html=1;exitX=0.75;exitY=1;exitDx=0;exitDy=0;startArrow=blockThin;startFill=1;" edge="1" parent="1" source="fdgb_wpusmmBCs2MOBiY-7" target="fdgb_wpusmmBCs2MOBiY-14">
          <mxGeometry relative="1" as="geometry" />
        </mxCell>
        <mxCell id="fdgb_wpusmmBCs2MOBiY-36" value="http" style="edgeLabel;html=1;align=center;verticalAlign=middle;resizable=0;points=[];" vertex="1" connectable="0" parent="fdgb_wpusmmBCs2MOBiY-35">
          <mxGeometry x="0.08" y="3" relative="1" as="geometry">
            <mxPoint as="offset" />
          </mxGeometry>
        </mxCell>
        <mxCell id="fdgb_wpusmmBCs2MOBiY-47" style="rounded=0;orthogonalLoop=1;jettySize=auto;html=1;exitX=0;exitY=1;exitDx=0;exitDy=0;entryX=0.5;entryY=0;entryDx=0;entryDy=0;startArrow=block;startFill=1;" edge="1" parent="1" source="fdgb_wpusmmBCs2MOBiY-7" target="fdgb_wpusmmBCs2MOBiY-22">
          <mxGeometry relative="1" as="geometry" />
        </mxCell>
        <mxCell id="fdgb_wpusmmBCs2MOBiY-7" value="unicorn-os&lt;div&gt;统一模型&lt;/div&gt;" style="rounded=1;whiteSpace=wrap;html=1;" vertex="1" parent="1">
          <mxGeometry x="580" y="350" width="120" height="60" as="geometry" />
        </mxCell>
        <mxCell id="fdgb_wpusmmBCs2MOBiY-11" style="edgeStyle=orthogonalEdgeStyle;rounded=0;orthogonalLoop=1;jettySize=auto;html=1;" edge="1" parent="1" source="fdgb_wpusmmBCs2MOBiY-8" target="fdgb_wpusmmBCs2MOBiY-7">
          <mxGeometry relative="1" as="geometry" />
        </mxCell>
        <mxCell id="fdgb_wpusmmBCs2MOBiY-8" value="交易" style="whiteSpace=wrap;html=1;" vertex="1" parent="1">
          <mxGeometry x="580" y="210" width="120" height="60" as="geometry" />
        </mxCell>
        <mxCell id="fdgb_wpusmmBCs2MOBiY-13" style="edgeStyle=orthogonalEdgeStyle;rounded=0;orthogonalLoop=1;jettySize=auto;html=1;entryX=1;entryY=0.5;entryDx=0;entryDy=0;" edge="1" parent="1" source="fdgb_wpusmmBCs2MOBiY-9" target="fdgb_wpusmmBCs2MOBiY-7">
          <mxGeometry relative="1" as="geometry">
            <Array as="points">
              <mxPoint x="887" y="380" />
            </Array>
          </mxGeometry>
        </mxCell>
        <mxCell id="fdgb_wpusmmBCs2MOBiY-9" value="慧充交易" style="whiteSpace=wrap;html=1;" vertex="1" parent="1">
          <mxGeometry x="827" y="210" width="120" height="60" as="geometry" />
        </mxCell>
        <mxCell id="fdgb_wpusmmBCs2MOBiY-12" style="edgeStyle=orthogonalEdgeStyle;rounded=0;orthogonalLoop=1;jettySize=auto;html=1;entryX=0;entryY=0.5;entryDx=0;entryDy=0;exitX=0.5;exitY=1;exitDx=0;exitDy=0;" edge="1" parent="1" source="fdgb_wpusmmBCs2MOBiY-10" target="fdgb_wpusmmBCs2MOBiY-7">
          <mxGeometry relative="1" as="geometry" />
        </mxCell>
        <mxCell id="fdgb_wpusmmBCs2MOBiY-10" value="神马os" style="whiteSpace=wrap;html=1;" vertex="1" parent="1">
          <mxGeometry x="414" y="210" width="120" height="60" as="geometry" />
        </mxCell>
        <mxCell id="fdgb_wpusmmBCs2MOBiY-17" style="edgeStyle=orthogonalEdgeStyle;rounded=0;orthogonalLoop=1;jettySize=auto;html=1;" edge="1" parent="1" source="fdgb_wpusmmBCs2MOBiY-14" target="fdgb_wpusmmBCs2MOBiY-4">
          <mxGeometry relative="1" as="geometry" />
        </mxCell>
        <mxCell id="fdgb_wpusmmBCs2MOBiY-14" value="supersonic-server" style="rounded=1;whiteSpace=wrap;html=1;" vertex="1" parent="1">
          <mxGeometry x="740" y="510" width="120" height="60" as="geometry" />
        </mxCell>
        <mxCell id="fdgb_wpusmmBCs2MOBiY-19" style="edgeStyle=orthogonalEdgeStyle;rounded=0;orthogonalLoop=1;jettySize=auto;html=1;" edge="1" parent="1" source="fdgb_wpusmmBCs2MOBiY-18" target="fdgb_wpusmmBCs2MOBiY-3">
          <mxGeometry relative="1" as="geometry" />
        </mxCell>
        <mxCell id="fdgb_wpusmmBCs2MOBiY-31" style="rounded=0;orthogonalLoop=1;jettySize=auto;html=1;exitX=0.5;exitY=0;exitDx=0;exitDy=0;entryX=0.5;entryY=1;entryDx=0;entryDy=0;startArrow=blockThin;startFill=1;" edge="1" parent="1" source="fdgb_wpusmmBCs2MOBiY-18" target="fdgb_wpusmmBCs2MOBiY-7">
          <mxGeometry relative="1" as="geometry" />
        </mxCell>
        <mxCell id="fdgb_wpusmmBCs2MOBiY-34" value="http" style="edgeLabel;html=1;align=center;verticalAlign=middle;resizable=0;points=[];" vertex="1" connectable="0" parent="fdgb_wpusmmBCs2MOBiY-31">
          <mxGeometry x="-0.2789" relative="1" as="geometry">
            <mxPoint as="offset" />
          </mxGeometry>
        </mxCell>
        <mxCell id="fdgb_wpusmmBCs2MOBiY-41" style="rounded=0;orthogonalLoop=1;jettySize=auto;html=1;exitX=1;exitY=0;exitDx=0;exitDy=0;" edge="1" parent="1" source="fdgb_wpusmmBCs2MOBiY-18" target="fdgb_wpusmmBCs2MOBiY-37">
          <mxGeometry relative="1" as="geometry" />
        </mxCell>
        <mxCell id="fdgb_wpusmmBCs2MOBiY-18" value="dc-equipment-server" style="rounded=1;whiteSpace=wrap;html=1;" vertex="1" parent="1">
          <mxGeometry x="550" y="510" width="120" height="60" as="geometry" />
        </mxCell>
        <mxCell id="fdgb_wpusmmBCs2MOBiY-20" style="edgeStyle=orthogonalEdgeStyle;rounded=0;orthogonalLoop=1;jettySize=auto;html=1;entryX=0.417;entryY=1.017;entryDx=0;entryDy=0;entryPerimeter=0;" edge="1" parent="1" source="fdgb_wpusmmBCs2MOBiY-2" target="fdgb_wpusmmBCs2MOBiY-3">
          <mxGeometry relative="1" as="geometry" />
        </mxCell>
        <mxCell id="fdgb_wpusmmBCs2MOBiY-22" value="unicorn-agent-api" style="rounded=1;whiteSpace=wrap;html=1;" vertex="1" parent="1">
          <mxGeometry x="360" y="510" width="120" height="60" as="geometry" />
        </mxCell>
        <mxCell id="fdgb_wpusmmBCs2MOBiY-25" style="edgeStyle=orthogonalEdgeStyle;rounded=0;orthogonalLoop=1;jettySize=auto;html=1;exitX=0.5;exitY=0;exitDx=0;exitDy=0;entryX=0.5;entryY=1;entryDx=0;entryDy=0;startArrow=openThin;startFill=0;" edge="1" parent="1" source="fdgb_wpusmmBCs2MOBiY-23" target="fdgb_wpusmmBCs2MOBiY-24">
          <mxGeometry relative="1" as="geometry" />
        </mxCell>
        <mxCell id="fdgb_wpusmmBCs2MOBiY-23" value="桩" style="rounded=0;whiteSpace=wrap;html=1;" vertex="1" parent="1">
          <mxGeometry x="350" y="770" width="120" height="60" as="geometry" />
        </mxCell>
        <mxCell id="fdgb_wpusmmBCs2MOBiY-24" value="运营商 5%" style="rounded=0;whiteSpace=wrap;html=1;" vertex="1" parent="1">
          <mxGeometry x="350" y="660" width="120" height="60" as="geometry" />
        </mxCell>
        <mxCell id="fdgb_wpusmmBCs2MOBiY-27" style="edgeStyle=orthogonalEdgeStyle;rounded=0;orthogonalLoop=1;jettySize=auto;html=1;entryX=0.583;entryY=0.017;entryDx=0;entryDy=0;entryPerimeter=0;startArrow=openThin;startFill=0;" edge="1" parent="1" source="fdgb_wpusmmBCs2MOBiY-22" target="fdgb_wpusmmBCs2MOBiY-24">
          <mxGeometry relative="1" as="geometry" />
        </mxCell>
        <mxCell id="fdgb_wpusmmBCs2MOBiY-29" value="中电联" style="text;html=1;align=center;verticalAlign=middle;resizable=0;points=[];autosize=1;strokeColor=none;fillColor=none;" vertex="1" parent="1">
          <mxGeometry x="410" y="600" width="60" height="30" as="geometry" />
        </mxCell>
        <mxCell id="fdgb_wpusmmBCs2MOBiY-30" value="Netty" style="text;html=1;align=center;verticalAlign=middle;resizable=0;points=[];autosize=1;strokeColor=none;fillColor=none;" vertex="1" parent="1">
          <mxGeometry x="675" y="598" width="50" height="30" as="geometry" />
        </mxCell>
        <mxCell id="fdgb_wpusmmBCs2MOBiY-37" value="equipment-management" style="rounded=1;whiteSpace=wrap;html=1;" vertex="1" parent="1">
          <mxGeometry x="1060" y="370" width="120" height="60" as="geometry" />
        </mxCell>
        <mxCell id="fdgb_wpusmmBCs2MOBiY-39" style="edgeStyle=orthogonalEdgeStyle;rounded=0;orthogonalLoop=1;jettySize=auto;html=1;exitX=1;exitY=0.75;exitDx=0;exitDy=0;entryX=0.008;entryY=0.4;entryDx=0;entryDy=0;entryPerimeter=0;" edge="1" parent="1" source="fdgb_wpusmmBCs2MOBiY-7" target="fdgb_wpusmmBCs2MOBiY-37">
          <mxGeometry relative="1" as="geometry" />
        </mxCell>
        <mxCell id="fdgb_wpusmmBCs2MOBiY-40" style="rounded=0;orthogonalLoop=1;jettySize=auto;html=1;exitX=1;exitY=0;exitDx=0;exitDy=0;entryX=0.417;entryY=0.95;entryDx=0;entryDy=0;entryPerimeter=0;" edge="1" parent="1" source="fdgb_wpusmmBCs2MOBiY-14" target="fdgb_wpusmmBCs2MOBiY-37">
          <mxGeometry relative="1" as="geometry" />
        </mxCell>
        <mxCell id="fdgb_wpusmmBCs2MOBiY-42" value="设备中心" style="text;html=1;align=center;verticalAlign=middle;resizable=0;points=[];autosize=1;strokeColor=none;fillColor=none;" vertex="1" parent="1">
          <mxGeometry x="1125" y="428" width="70" height="30" as="geometry" />
        </mxCell>
        <mxCell id="fdgb_wpusmmBCs2MOBiY-43" value="dubbo" style="text;html=1;align=center;verticalAlign=middle;resizable=0;points=[];autosize=1;strokeColor=none;fillColor=none;" vertex="1" parent="1">
          <mxGeometry x="580" y="288" width="60" height="30" as="geometry" />
        </mxCell>
        <mxCell id="fdgb_wpusmmBCs2MOBiY-44" value="指令" style="text;html=1;align=center;verticalAlign=middle;resizable=0;points=[];autosize=1;strokeColor=none;fillColor=none;" vertex="1" parent="1">
          <mxGeometry x="650" y="288" width="50" height="30" as="geometry" />
        </mxCell>
        <mxCell id="fdgb_wpusmmBCs2MOBiY-45" value="指令&lt;div&gt;&lt;br&gt;&lt;/div&gt;" style="text;html=1;align=center;verticalAlign=middle;resizable=0;points=[];autosize=1;strokeColor=none;fillColor=none;" vertex="1" parent="1">
          <mxGeometry x="465" y="293" width="50" height="40" as="geometry" />
        </mxCell>
        <mxCell id="fdgb_wpusmmBCs2MOBiY-46" value="远程升级" style="text;html=1;align=center;verticalAlign=middle;resizable=0;points=[];autosize=1;strokeColor=none;fillColor=none;" vertex="1" parent="1">
          <mxGeometry x="480" y="348" width="70" height="30" as="geometry" />
        </mxCell>
        <mxCell id="fdgb_wpusmmBCs2MOBiY-48" value="dubbo" style="text;html=1;align=center;verticalAlign=middle;resizable=0;points=[];autosize=1;strokeColor=none;fillColor=none;" vertex="1" parent="1">
          <mxGeometry x="460" y="428" width="60" height="30" as="geometry" />
        </mxCell>
        <mxCell id="fdgb_wpusmmBCs2MOBiY-49" value="运营商" style="rounded=0;whiteSpace=wrap;html=1;" vertex="1" parent="1">
          <mxGeometry x="-150" y="331" width="120" height="60" as="geometry" />
        </mxCell>
        <mxCell id="fdgb_wpusmmBCs2MOBiY-51" style="edgeStyle=orthogonalEdgeStyle;rounded=0;orthogonalLoop=1;jettySize=auto;html=1;exitX=1;exitY=0.5;exitDx=0;exitDy=0;entryX=0;entryY=0.367;entryDx=0;entryDy=0;entryPerimeter=0;" edge="1" parent="1" source="fdgb_wpusmmBCs2MOBiY-49" target="fdgb_wpusmmBCs2MOBiY-5">
          <mxGeometry relative="1" as="geometry" />
        </mxCell>
        <mxCell id="fdgb_wpusmmBCs2MOBiY-54" value="设备连接层" style="text;html=1;align=center;verticalAlign=middle;whiteSpace=wrap;rounded=0;fillColor=#f8cecc;strokeColor=#b85450;" vertex="1" parent="1">
          <mxGeometry x="260" y="490" width="70" height="30" as="geometry" />
        </mxCell>
        <mxCell id="fdgb_wpusmmBCs2MOBiY-59" style="edgeStyle=orthogonalEdgeStyle;rounded=0;orthogonalLoop=1;jettySize=auto;html=1;exitX=1;exitY=0.5;exitDx=0;exitDy=0;exitPerimeter=0;entryX=0;entryY=0.5;entryDx=0;entryDy=0;" edge="1" parent="1" source="fdgb_wpusmmBCs2MOBiY-55" target="fdgb_wpusmmBCs2MOBiY-22">
          <mxGeometry relative="1" as="geometry" />
        </mxCell>
        <mxCell id="fdgb_wpusmmBCs2MOBiY-55" value="" style="shape=cylinder3;whiteSpace=wrap;html=1;boundedLbl=1;backgroundOutline=1;size=15;" vertex="1" parent="1">
          <mxGeometry x="120" y="500" width="60" height="80" as="geometry" />
        </mxCell>
        <mxCell id="fdgb_wpusmmBCs2MOBiY-57" style="edgeStyle=orthogonalEdgeStyle;rounded=0;orthogonalLoop=1;jettySize=auto;html=1;entryX=0.5;entryY=0;entryDx=0;entryDy=0;entryPerimeter=0;" edge="1" parent="1" source="fdgb_wpusmmBCs2MOBiY-5" target="fdgb_wpusmmBCs2MOBiY-55">
          <mxGeometry relative="1" as="geometry" />
        </mxCell>
      </root>
    </mxGraphModel>
  </diagram>
</mxfile>
